<svg xmlns="http://www.w3.org/2000/svg" viewBox="185 105 350 400">
  <g fill="#020617">
    <path d="M399.37,106.08l-29.52-.03c-40.3,69.13-52.96,148.42-8.85,217.9,12.84,20.22,27.85,37.46,44.12,55.08l53.21,57.61c18.04,19.54,31.42,41.37,42.71,65.42l33.02.11c-3.66-7.2-8.74-16.83-15.21-27.97-5.92-10.19-11.99-20.64-21.08-33.37-5.89-8.24-14.04-18.83-24.72-30.5l-41.6-44.53c-15.36-16.44-29.76-32.28-42.59-50.75-24.88-35.81-33.95-78.23-25.87-121.31,5.77-31.61,18.74-59.22,36.39-87.65Z"/>
    <path d="M320.4,106.06c-41.51,76.35-52.9,158.38-9.04,235.98,32.17,56.91,77.87,98.9,103.4,159.95l30.43.3c-10.13-26.71-22.48-51.16-39.19-73.96l-37.65-51.37c-12.29-16.76-23.6-32.77-33.66-50.99-21.54-39.02-28.1-82.44-19.15-126.4,6.41-33.1,19.5-62.65,36.88-93.52h-32.01Z"/>
    <path d="M270.54,106.06c-39.02,85.2-50.77,169.12-10.32,255.62,22.84,48.83,51.51,90.18,69.91,140.49l29.49-.12c-9.77-30.45-24.24-58.08-39.37-86.58l-32.39-61.03c-41.53-85.36-26.23-165.08,13.68-248.38h-31Z"/>
    <path d="M213.87,106.06c-28.21,87.31-41.36,164.46-16.12,253.62,13.87,49,33.74,93.67,47.41,142.48l29.02-.02c-8.17-29.89-17.2-56.66-27.6-84.69-8.52-23.61-16.53-46.02-23.09-70.31-22.79-84.46-7.13-159.28,20.12-241.07h-29.73Z"/>
  </g>
</svg>
